<svg xmlns="http://www.w3.org/2000/svg" viewBox="0 0 43 34" height="20" width="20"><g fill="#000" fill-rule="evenodd"><path d="M33.94 28.654c2.052-2.568 3.852-1.036 5.996-2.499 3.176-2.166-.074-6.149-3.068-4.03-1.356.958-2.666 5.043-2.929 6.53zM33.032 20.063c1.15-1.44 2.133-1.65 3.335-2.47 1.78-1.214-.016-3.348-1.694-2.16-.76.536-1.494 3.797-1.641 4.63zM8.45 28.641c-2.064-2.554-3.574-1.137-5.716-2.602-3.174-2.17-.25-5.988 2.742-3.868 1.356.96 2.697 5.002 2.974 6.47zM9.605 20.063c-1.15-1.44-2.033-1.573-3.235-2.393-1.78-1.214-.084-3.425 1.594-2.238.76.537 1.493 3.798 1.64 4.63zM16.245.808c4.313 13.42-4.72 12.898-4.85 22.521-.194 14.251 20.59 13.12 20.538-.479C31.91 16.693 22.857 4.476 16.245.808z"/></g></svg>
